# xmcd
#
# Track frame offsets:
# 150
# 21385
# 33495
# 48183
# 62997
# 74648
# 85331
# 100213
# 110547
# 133020
# 144184
# 162649
#
# Disc length: 2310 seconds
#
#
# Revision: 0
# Processed by: cddbd v1.5.1PL0 Copyright (c) Steve Scherf et al.
# Submitted via: FreeRIP 2.90 
#
DISCID=af09040c
DTITLE=No Guff - They're Red Hot
DYEAR=2002
DGENRE=Bluegrass
TTITLE0=Sittin' In the Kitchen
TTITLE1=No One Like You
TTITLE2=Blue Mood
TTITLE3=Nowhere To Go
TTITLE4=She Don't Know
TTITLE5=Late Last Night
TTITLE6=They're Red Hot
TTITLE7=Snaky
TTITLE8=Spoonful
TTITLE9=Back Up
TTITLE10=Ten Dollar Guitar
TTITLE11=Apt. #34
EXTD=
EXTT0=
EXTT1=
EXTT2=
EXTT3=
EXTT4=
EXTT5=
EXTT6=
EXTT7=
EXTT8=
EXTT9=
EXTT10=
EXTT11=
PLAYORDER=
